<!DOCTYPE svg PUBLIC "-//W3C//DTD SVG 1.1//EN" "http://www.w3.org/Graphics/SVG/1.1/DTD/svg11.dtd">
<!-- Uploaded to: SVG Repo, www.svgrepo.com, Transformed by: SVG Repo Mixer Tools -->
<svg fill="#000000" width="64px" height="64px" viewBox="0 0 256 256" id="Flat" xmlns="http://www.w3.org/2000/svg">
<g id="SVGRepo_bgCarrier" stroke-width="0"/>
<g id="SVGRepo_tracerCarrier" stroke-linecap="round" stroke-linejoin="round"/>
<g id="SVGRepo_iconCarrier"> <path d="M200,172a28.03935,28.03935,0,0,0-27.70972,24H72a36,36,0,0,1,0-72h96a36,36,0,0,0,0-72H72a4,4,0,0,0,0,8h96a28,28,0,0,1,0,56H72a44,44,0,0,0,0,88H172.29028A27.99856,27.99856,0,1,0,200,172Zm0,48a20,20,0,1,1,20-20A20.02229,20.02229,0,0,1,200,220Z"/> </g>
</svg>